# xmcd
#
# Track frame offsets:
#	150
#	12475
#	24210
#	41657
#	58563
#	70827
#	86217
#	100770
#	118118
#	132678
#	142580
#	155622
#	171573
#	186322
#	201148
#	212420
#	227175
#	245668
#
# Disc length: 3480 seconds
#
# Revision: 1
# Processed by: cddbd v1.4PL0 Copyright (c) Steve Scherf et al.
# Submitted via: CDmax 1.9
#
DISCID=040d9612
DTITLE=Various Artist - Country Ladies
DYEAR=2001
DGENRE=Country
TTITLE0=Patsy Cline: Crazy
TTITLE1=Loretta Lynn: Sweet Dreams
TTITLE2=Allison Moorer: A Soft Place To Fall
TTITLE3=Chely Wright: Shut Up And Drive
TTITLE4=Crystal Gayle: I Cried (The Blue Right Out Of My Eyes)
TTITLE5=Kathy Mattea: Walking Away A Winner
TTITLE6=Patty Loveless: BLue Side Of Town
TTITLE7=Billie Jo Spears: Blanket On The Ground
TTITLE8=Rita Coolidge: I'll Be Your Baby Tonight
TTITLE9=Connie Francis: I'm Movin' On
TTITLE10=Tanya Tucker: San Antonio Stroll
TTITLE11=Terri Clark: Cure For The Common Heartache
TTITLE12=Lynn Anderson: Odds And Ends
TTITLE13=Danni Leigh: Touch Me
TTITLE14=Kelly Willis: Heaven's Just A Sin Away
TTITLE15=Marsha Thornton: Bottle Of Wine And Patsy Cline
TTITLE16=Bobby Cryner: You'd Think He'd Know Me Better
TTITLE17=Jeannie C. Riley: Harper Valley PTA
EXTD=
EXTT0=
EXTT1=
EXTT2=
EXTT3=
EXTT4=
EXTT5=
EXTT6=
EXTT7=
EXTT8=
EXTT9=
EXTT10=
EXTT11=
EXTT12=
EXTT13=
EXTT14=
EXTT15=
EXTT16=
EXTT17=
PLAYORDER=
